<svg width="80" height="82" viewBox="0 0 80 82" fill="none" xmlns="http://www.w3.org/2000/svg">
<ellipse cx="40" cy="40.6751" rx="40" ry="40.3376" fill="url(#paint0_linear_83_103)"/>
<path fill-rule="evenodd" clip-rule="evenodd" d="M55.4141 31.7011C55.7784 31.3475 55.98 30.8738 55.9755 30.3822C55.9709 29.8906 55.7606 29.4203 55.3897 29.0726C55.0189 28.725 54.5173 28.5278 53.9929 28.5235C53.4685 28.5192 52.9633 28.7082 52.5861 29.0498L44.0641 37.0377C42.5361 36.192 40.7517 35.8466 38.9915 36.0558C37.2312 36.2649 35.5951 37.0168 34.3405 38.193C33.0858 39.3693 32.2839 40.9033 32.0608 42.5536C31.8377 44.2039 32.2061 45.8769 33.1081 47.3094L24.5861 55.3011C24.3951 55.474 24.2427 55.6809 24.1379 55.9097C24.0331 56.1385 23.9779 56.3845 23.9756 56.6335C23.9733 56.8825 24.0239 57.1294 24.1245 57.3598C24.225 57.5903 24.3735 57.7996 24.5613 57.9757C24.7491 58.1517 24.9724 58.291 25.2182 58.3852C25.464 58.4795 25.7273 58.527 25.9929 58.5248C26.2585 58.5226 26.5209 58.4709 26.7649 58.3726C27.0089 58.2744 27.2296 58.1315 27.4141 57.9524L35.9361 49.9645C37.4641 50.8102 39.2485 51.1556 41.0088 50.9464C42.769 50.7373 44.4051 49.9854 45.6597 48.8092C46.9144 47.6329 47.7163 46.0989 47.9394 44.4486C48.1625 42.7983 47.7941 41.1253 46.8921 39.6928L55.4141 31.7011ZM41.0361 39.8765C40.3577 39.7059 39.6433 39.7057 38.9649 39.876C38.2864 40.0463 37.6677 40.3812 37.171 40.8468C36.6743 41.3125 36.3172 41.8925 36.1355 42.5286C35.9539 43.1647 35.9541 43.8345 36.1361 44.4705L41.0361 39.8765ZM38.9641 47.1238L43.8641 42.5298C44.0461 43.1658 44.0463 43.8356 43.8647 44.4717C43.683 45.1078 43.3259 45.6879 42.8292 46.1535C42.3325 46.6192 41.7138 46.954 41.0354 47.1243C40.3569 47.2946 39.6425 47.2944 38.9641 47.1238ZM47.5301 30.0398C45.2601 29.1004 42.7341 28.5004 40.0001 28.5004C34.2961 28.5004 29.5141 31.1161 25.9961 33.9494C22.4661 36.7939 20.0161 40.0097 18.9281 41.5698C18.5262 42.1434 18.312 42.8148 18.312 43.5011C18.312 44.1874 18.5262 44.8588 18.9281 45.4324C20.5166 47.7002 22.359 49.8022 24.4241 51.7028L27.2521 49.0514C25.4185 47.3671 23.7788 45.5068 22.3601 43.5011C23.3801 42.0517 25.5561 39.2484 28.6021 36.7939C31.7481 34.2606 35.6321 32.2505 40.0001 32.2505C41.5098 32.2559 43.0089 32.4883 44.4401 32.9387L47.5301 30.0398ZM40.0001 54.7517C38.4904 54.7463 36.9913 54.5139 35.5601 54.0635L32.4721 56.9643C34.7441 57.9018 37.2681 58.5037 40.0021 58.5037C45.7061 58.5037 50.4881 55.888 54.0061 53.0547C57.5361 50.2102 59.9861 46.9944 61.0741 45.4343C61.8961 44.2568 61.8961 42.7511 61.0741 41.5716C59.4856 39.3039 57.6432 37.2019 55.5781 35.3013L52.7481 37.9508C54.5817 39.6351 56.2214 41.4954 57.6401 43.5011C56.6201 44.9505 54.4441 47.7538 51.3981 50.2083C48.2521 52.7416 44.3681 54.7517 40.0001 54.7517Z" fill="white"/>
<defs>
<linearGradient id="paint0_linear_83_103" x1="40" y1="0.337524" x2="40" y2="81.0126" gradientUnits="userSpaceOnUse">
<stop stop-color="#2846EA"/>
<stop offset="1" stop-color="#E146BF"/>
</linearGradient>
</defs>
</svg>
