<svg width="80" height="82" viewBox="0 0 80 82" fill="none" xmlns="http://www.w3.org/2000/svg">
<ellipse cx="40" cy="40.6751" rx="40" ry="40.3376" fill="url(#paint0_linear_60_199)"/>
<path fill-rule="evenodd" clip-rule="evenodd" d="M37.7325 18.101C38.2013 17.704 38.8371 17.481 39.5 17.481C40.1629 17.481 40.7987 17.704 41.2675 18.101L51.2675 26.572C51.7229 26.9714 51.9749 27.5063 51.9692 28.0616C51.9635 28.6169 51.7006 29.148 51.237 29.5407C50.7735 29.9333 50.1465 30.156 49.491 30.1609C48.8355 30.1657 48.204 29.9522 47.7325 29.5665L42 24.7105V45.0112C42 45.5728 41.7366 46.1115 41.2678 46.5086C40.7989 46.9058 40.163 47.1289 39.5 47.1289C38.837 47.1289 38.2011 46.9058 37.7322 46.5086C37.2634 46.1115 37 45.5728 37 45.0112V24.7105L31.2675 29.5665C30.796 29.9522 30.1645 30.1657 29.509 30.1609C28.8535 30.156 28.2265 29.9333 27.763 29.5407C27.2994 29.148 27.0365 28.6169 27.0308 28.0616C27.0251 27.5063 27.2771 26.9714 27.7325 26.572L37.7325 18.101ZM22 40.7757C22 39.0907 22.7902 37.4747 24.1967 36.2833C25.6032 35.0918 27.5109 34.4225 29.5 34.4225H32C32.663 34.4225 33.2989 34.6456 33.7678 35.0427C34.2366 35.4399 34.5 35.9785 34.5 36.5402C34.5 37.1019 34.2366 37.6405 33.7678 38.0377C33.2989 38.4348 32.663 38.6579 32 38.6579H29.5C28.837 38.6579 28.2011 38.8811 27.7322 39.2782C27.2634 39.6754 27 40.214 27 40.7757V53.4822C27 54.0438 27.2634 54.5825 27.7322 54.9796C28.2011 55.3768 28.837 55.5999 29.5 55.5999H49.5C50.163 55.5999 50.7989 55.3768 51.2678 54.9796C51.7366 54.5825 52 54.0438 52 53.4822V40.7757C52 40.214 51.7366 39.6754 51.2678 39.2782C50.7989 38.8811 50.163 38.6579 49.5 38.6579H47C46.337 38.6579 45.7011 38.4348 45.2322 38.0377C44.7634 37.6405 44.5 37.1019 44.5 36.5402C44.5 35.9785 44.7634 35.4399 45.2322 35.0427C45.7011 34.6456 46.337 34.4225 47 34.4225H49.5C51.4891 34.4225 53.3968 35.0918 54.8033 36.2833C56.2098 37.4747 57 39.0907 57 40.7757V53.4822C57 55.1671 56.2098 56.7831 54.8033 57.9746C53.3968 59.166 51.4891 59.8354 49.5 59.8354H29.5C27.5109 59.8354 25.6032 59.166 24.1967 57.9746C22.7902 56.7831 22 55.1671 22 53.4822V40.7757Z" fill="white"/>
<defs>
<linearGradient id="paint0_linear_60_199" x1="40" y1="0.337524" x2="40" y2="81.0126" gradientUnits="userSpaceOnUse">
<stop stop-color="#354AEB"/>
<stop offset="1" stop-color="#CE47C4"/>
</linearGradient>
</defs>
</svg>
