<svg width="80" height="81" viewBox="0 0 80 81" fill="none" xmlns="http://www.w3.org/2000/svg">
<ellipse cx="40" cy="40.6582" rx="40" ry="40.3376" fill="url(#paint0_linear_83_105)"/>
<path fill-rule="evenodd" clip-rule="evenodd" d="M39.0688 21.0277C39.358 20.9005 39.6768 20.8344 40 20.8344C40.3233 20.8344 40.6421 20.9005 40.9313 21.0277L61.7646 30.1944C62.1839 30.3793 62.52 30.6832 62.7185 31.0571C62.9171 31.431 62.9665 31.8528 62.8588 32.2545C62.7511 32.6561 62.4925 33.014 62.125 33.2703C61.7574 33.5266 61.3023 33.6663 60.8334 33.6667H19.1667C18.6978 33.6663 18.2427 33.5266 17.8751 33.2703C17.5076 33.014 17.249 32.6561 17.1413 32.2545C17.0336 31.8528 17.083 31.431 17.2816 31.0571C17.4801 30.6832 17.8162 30.3793 18.2355 30.1944L39.0688 21.0277ZM27.9917 30H52.0084L40 24.7164L27.9917 30ZM27.5 35.5C28.0526 35.5 28.5825 35.6932 28.9732 36.037C29.3639 36.3808 29.5834 36.8471 29.5834 37.3334V46.5C29.5834 46.9863 29.3639 47.4526 28.9732 47.7964C28.5825 48.1402 28.0526 48.3334 27.5 48.3334C26.9475 48.3334 26.4176 48.1402 26.0269 47.7964C25.6362 47.4526 25.4167 46.9863 25.4167 46.5V37.3334C25.4167 36.8471 25.6362 36.3808 26.0269 36.037C26.4176 35.6932 26.9475 35.5 27.5 35.5ZM35.8334 35.5C36.3859 35.5 36.9158 35.6932 37.3065 36.037C37.6972 36.3808 37.9167 36.8471 37.9167 37.3334V46.5C37.9167 46.9863 37.6972 47.4526 37.3065 47.7964C36.9158 48.1402 36.3859 48.3334 35.8334 48.3334C35.2808 48.3334 34.7509 48.1402 34.3602 47.7964C33.9695 47.4526 33.75 46.9863 33.75 46.5V37.3334C33.75 36.8471 33.9695 36.3808 34.3602 36.037C34.7509 35.6932 35.2808 35.5 35.8334 35.5ZM44.1667 35.5C44.7192 35.5 45.2491 35.6932 45.6398 36.037C46.0306 36.3808 46.25 36.8471 46.25 37.3334V46.5C46.25 46.9863 46.0306 47.4526 45.6398 47.7964C45.2491 48.1402 44.7192 48.3334 44.1667 48.3334C43.6142 48.3334 43.0843 48.1402 42.6936 47.7964C42.3029 47.4526 42.0834 46.9863 42.0834 46.5V37.3334C42.0834 36.8471 42.3029 36.3808 42.6936 36.037C43.0843 35.6932 43.6142 35.5 44.1667 35.5ZM52.5 35.5C53.0526 35.5 53.5825 35.6932 53.9732 36.037C54.3639 36.3808 54.5834 36.8471 54.5834 37.3334V46.5C54.5834 46.9863 54.3639 47.4526 53.9732 47.7964C53.5825 48.1402 53.0526 48.3334 52.5 48.3334C51.9475 48.3334 51.4176 48.1402 51.0269 47.7964C50.6362 47.4526 50.4167 46.9863 50.4167 46.5V37.3334C50.4167 36.8471 50.6362 36.3808 51.0269 36.037C51.4176 35.6932 51.9475 35.5 52.5 35.5ZM21.25 52C21.25 51.5138 21.4695 51.0475 21.8602 50.7037C22.2509 50.3599 22.7808 50.1667 23.3334 50.1667H56.6667C57.2192 50.1667 57.7491 50.3599 58.1399 50.7037C58.5306 51.0475 58.75 51.5138 58.75 52C58.75 52.4863 58.5306 52.9526 58.1399 53.2964C57.7491 53.6402 57.2192 53.8334 56.6667 53.8334H23.3334C22.7808 53.8334 22.2509 53.6402 21.8602 53.2964C21.4695 52.9526 21.25 52.4863 21.25 52ZM17.0834 57.5C17.0834 57.0138 17.3029 56.5475 17.6936 56.2037C18.0843 55.8599 18.6142 55.6667 19.1667 55.6667H60.8334C61.3859 55.6667 61.9158 55.8599 62.3065 56.2037C62.6972 56.5475 62.9167 57.0138 62.9167 57.5C62.9167 57.9863 62.6972 58.4526 62.3065 58.7964C61.9158 59.1402 61.3859 59.3334 60.8334 59.3334H19.1667C18.6142 59.3334 18.0843 59.1402 17.6936 58.7964C17.3029 58.4526 17.0834 57.9863 17.0834 57.5Z" fill="white"/>
<defs>
<linearGradient id="paint0_linear_83_105" x1="40" y1="0.320679" x2="40" y2="80.9958" gradientUnits="userSpaceOnUse">
<stop stop-color="#354AEB"/>
<stop offset="1" stop-color="#D547C2"/>
</linearGradient>
</defs>
</svg>
